Coordinates
version=1
nRows=8
nColumns=42
inDegrees=yes

Units are S.I. units (second, meters, Newtons, ...)
If the header above contains a line with 'inDegrees', this indicates whether rotational values are in degrees (yes) or radians (no).

endheader
time	pelvis_tilt	pelvis_list	pelvis_rotation	pelvis_tx	pelvis_ty	pelvis_tz	hip_flexion_r	hip_adduction_r	hip_rotation_r	knee_angle_r	knee_adduction_r	knee_angle_r_beta	ankle_angle_r	subtalar_angle_r	mtp_angle_r	hip_flexion_l	hip_adduction_l	hip_rotation_l	knee_angle_l	knee_adduction_l	knee_angle_l_beta	ankle_angle_l	subtalar_angle_l	mtp_angle_l	lumbar_extension	lumbar_bending	lumbar_rotation	arm_flex_r	arm_add_r	arm_rot_r	elbow_flex_r	pro_sup_r	wrist_flex_r	wrist_dev_r	arm_flex_l	arm_add_l	arm_rot_l	elbow_flex_l	pro_sup_l	wrist_flex_l	wrist_dev_l
      0.74000000	      1.26042119	     -1.20402522	      1.36402866	     -0.00270582	      0.98395237	     -0.24424094	     19.29692930	      0.06058818	     -5.84247363	     47.51493042	      0.60225145	      0.82929198	      1.73498488	    -13.30614165	     -7.66036370	     -3.46866731	      0.41046582	      1.44532803	      8.16881232	      1.14975629	      0.14257267	      7.63305401	      0.16134623	     -7.66036370	    -11.95819741	     -1.50212272	      1.12844347	    -14.87333858	    -11.47546260	      3.17984173	     40.61088195	     90.00000001	      0.00000000	      0.00000000	     -0.19410043	    -14.30104234	      9.34874227	     37.16104360	     90.00000001	      0.00000000	      0.00000000
      0.75000000	      1.65910022	     -1.71253331	      1.77247120	      0.01131424	      0.98349273	     -0.24466304	     19.39052145	      0.51494312	     -5.74190058	     44.56172384	      1.15074610	      0.77774880	      2.04568870	    -13.27532009	     -7.65302816	     -5.22460592	     -0.28727732	      2.21957514	      7.29727017	      1.34777395	      0.12736139	      8.28913976	      0.31873862	     -7.65302816	    -12.35143366	     -0.77387440	      0.94499787	    -15.38642470	    -11.46468149	      2.44333245	     40.60715491	     90.00000001	      0.00000000	      0.00000000	      0.60531939	    -14.88205810	     11.78911755	     38.56149134	     90.00000001	      0.00000000	      0.00000000
      0.76000000	      1.29377532	     -1.51035583	      1.86921307	      0.02471891	      0.98158157	     -0.24538560	     20.58333276	      0.17285626	     -5.85367323	     41.98217164	      1.23098428	      0.73272712	      2.21967852	    -12.71571353	     -7.65113776	     -5.79970796	      0.04216265	      2.17023165	      7.12481552	      1.18284893	      0.12435149	      8.80976102	      0.39123962	     -7.65113776	    -11.95323828	     -0.83824304	      0.77208707	    -15.85496830	    -11.58642740	      2.30718455	     40.56378864	     90.00000001	      0.00000000	      0.00000000	      1.40978500	    -14.88375699	     12.09150446	     39.45191818	     90.00000001	      0.00000000	      0.00000000
      0.77000000	      1.67135090	     -1.92502573	      2.21343169	      0.03869234	      0.98045686	     -0.24557722	     20.54953750	      0.55262239	     -6.13983297	     38.64013007	      1.39699038	      0.67439749	      2.49737550	    -12.15759706	     -7.64448341	     -7.38864598	     -0.57975881	      2.75562681	      6.53518259	      1.39439416	      0.11406045	      9.46990577	      0.36298301	     -7.64448341	    -12.33195824	     -0.23825587	      0.67545880	    -16.27431301	    -11.51435214	      1.54116192	     40.44370665	     90.00000001	      0.00000000	      0.00000000	      2.33871986	    -15.39881187	     14.25689272	     40.71352872	     90.00000001	      0.00000000	      0.00000000
      0.78000000	      1.69349158	     -1.98107570	      2.36370493	      0.05243538	      0.97853722	     -0.24595274	     20.97510094	      0.55470150	     -6.51307641	     35.40069342	      1.32272491	      0.61785866	      2.70792768	    -11.19370972	     -7.63753030	     -8.47091705	     -0.67624238	      3.02881789	      6.22118926	      1.45012745	      0.10858024	     10.02327524	      0.21666328	     -7.63753030	    -12.35191175	     -0.02620897	      0.58663503	    -16.62972618	    -11.53457862	      1.08123288	     40.32081237	     90.00000001	      0.00000000	      0.00000000	      3.22970148	    -15.62250792	     15.39834862	     41.72554826	     90.00000001	      0.00000000	      0.00000000
      0.79000000	      1.33350319	     -1.78212469	      2.41227344	      0.06574032	      0.97587263	     -0.24628411	     21.82767495	      0.25082871	     -6.64274106	     32.19569794	      1.37922370	      0.56192093	      2.88343299	    -10.07356469	     -7.63489723	     -8.99564736	     -0.40846332	      3.12499059	      6.17140127	      1.39425670	      0.10771127	     10.68035375	      0.20378438	     -7.63489723	    -12.00248094	     -0.12275738	      0.50552433	    -16.90637034	    -11.54337353	      0.84722018	     40.08743662	     90.00000001	      0.00000000	      0.00000000	      4.10388557	    -15.72702513	     15.96861310	     42.68681097	     90.00000001	      0.00000000	      0.00000000
      0.80000000	      1.57307695	     -1.92950230	      2.53254830	      0.07974904	      0.97379414	     -0.24618109	     21.77914040	      0.48476115	     -7.40341532	     28.57625362	      0.98047017	      0.49874971	      3.22476774	     -8.45063864	     -7.62928422	    -10.30680577	     -0.67335647	      3.18474836	      5.89335756	      1.51640366	      0.10285849	     11.26913416	      0.05716252	     -7.62928422	    -12.25103285	      0.15279832	      0.53244520	    -17.15990210	    -11.42777329	      0.19066000	     39.85964463	     90.00000001	      0.00000000	      0.00000000	      5.10176147	    -16.07959769	     17.49201086	     43.62985451	     90.00000001	      0.00000000	      0.00000000
      0.81000000	      1.48081786	     -1.81870154	      2.56083054	      0.09343857	      0.97110207	     -0.24621401	     22.08990846	      0.40990942	     -7.91014409	     25.05518588	      0.72212321	      0.43729549	      3.47639850	     -6.66858924	     -7.62438975	    -11.17858234	     -0.54771133	      3.17998780	      5.77820142	      1.51282137	      0.10084864	     11.85243967	     -0.06524031	     -7.62438975	    -12.18437642	      0.15282147	      0.49199653	    -17.31374592	    -11.37386359	     -0.20848616	     39.56264572	     90.00000001	      0.00000000	      0.00000000	      6.01475480	    -16.25193839	     18.33227998	     44.48219373	     90.00000001	      0.00000000	      0.00000000
